<?xml version="1.0" encoding="UTF-8" standalone="no"?>
<svg
   viewBox="0 0 512 512"
   version="1.1"
   id="svg4"
   sodipodi:docname="Trash.svg"
   inkscape:version="1.1.2 (b8e25be833, 2022-02-05)"
   width="512"
   height="512"
   xmlns:inkscape="http://www.inkscape.org/namespaces/inkscape"
   xmlns:sodipodi="http://sodipodi.sourceforge.net/DTD/sodipodi-0.dtd"
   xmlns="http://www.w3.org/2000/svg"
   xmlns:svg="http://www.w3.org/2000/svg">
  <defs
     id="defs8" />
  <sodipodi:namedview
     id="namedview6"
     pagecolor="#323232"
     bordercolor="#666666"
     borderopacity="1.0"
     inkscape:pageshadow="2"
     inkscape:pageopacity="0"
     inkscape:pagecheckerboard="0"
     showgrid="false"
     inkscape:zoom="0.81152344"
     inkscape:cx="62.22864"
     inkscape:cy="193.4633"
     inkscape:window-width="1920"
     inkscape:window-height="1017"
     inkscape:window-x="-8"
     inkscape:window-y="-8"
     inkscape:window-maximized="1"
     inkscape:current-layer="svg4" />
  <!--! Font Awesome Pro 6.1.1 by @fontawesome - https://fontawesome.com License - https://fontawesome.com/license (Commercial License) Copyright 2022 Fonticons, Inc. -->
  <path
     d="M 167.2,17.69 C 172.6,6.848 183.7,0 195.8,0 h 120.4 c 12.1,0 23.2,6.848 28.6,17.69 L 352,32 h 96 c 17.7,0 32,14.33 32,32 0,17.67 -14.3,32 -32,32 H 64 C 46.33,96 32,81.67 32,64 32,46.33 46.33,32 64,32 h 96 z M 426.8,466.1 C 425.2,492.3 404.3,512 378.9,512 H 133.1 C 107.75,512 86.77,492.3 85.19,466.1 L 63.1,128 H 448 Z"
     id="path2"
     style="fill:#ffffff" />
</svg>
