<?xml version="1.0" encoding="UTF-8" standalone="no"?>
<svg
   viewBox="0 0 512 512"
   version="1.1"
   id="svg4"
   sodipodi:docname="Menu-Dots.svg"
   width="512"
   height="512"
   inkscape:version="1.1.2 (b8e25be833, 2022-02-05)"
   xmlns:inkscape="http://www.inkscape.org/namespaces/inkscape"
   xmlns:sodipodi="http://sodipodi.sourceforge.net/DTD/sodipodi-0.dtd"
   xmlns="http://www.w3.org/2000/svg"
   xmlns:svg="http://www.w3.org/2000/svg">
  <defs
     id="defs8" />
  <sodipodi:namedview
     id="namedview6"
     pagecolor="#ffffff"
     bordercolor="#666666"
     borderopacity="1.0"
     inkscape:pageshadow="2"
     inkscape:pageopacity="0.0"
     inkscape:pagecheckerboard="0"
     showgrid="false"
     inkscape:zoom="1.6230469"
     inkscape:cx="63.768953"
     inkscape:cy="256.30806"
     inkscape:window-width="1920"
     inkscape:window-height="1017"
     inkscape:window-x="-8"
     inkscape:window-y="-8"
     inkscape:window-maximized="1"
     inkscape:current-layer="svg4" />
  <!--! Font Awesome Pro 6.1.2 by @fontawesome - https://fontawesome.com License - https://fontawesome.com/license (Commercial License) Copyright 2022 Fonticons, Inc. -->
  <path
     d="m 256,360 c 30.93,0 56,25.1 56,56 0,30.9 -25.07,56 -56,56 -30.93,0 -56,-25.1 -56,-56 0,-30.9 25.07,-56 56,-56 z m 0,-160 c 30.93,0 56,25.1 56,56 0,30.9 -25.07,56 -56,56 -30.93,0 -56,-25.1 -56,-56 0,-30.9 25.07,-56 56,-56 z m 0,-48 c -30.93,0 -56,-25.1 -56,-56 0,-30.93 25.07,-56 56,-56 30.93,0 56,25.07 56,56 0,30.9 -25.07,56 -56,56 z"
     id="path2"
     style="fill:#ffffff" />
</svg>
